<svg width="1080" height="1080" viewBox="0 0 1080 1080" fill="none" xmlns="http://www.w3.org/2000/svg">
<rect width="1080" height="1080" rx="19.9937" fill="black"/>
<path d="M155.54 488.381V515.901H183.06V543.42H155.54V653.5H128.02V488.381H155.54ZM183.06 488.381H210.58V515.901H183.06V488.381ZM265.619 488.381H293.139V515.901H265.619V488.381ZM210.58 653.5V515.901H265.619V543.42H238.099V653.5H210.58ZM293.139 515.901H320.659V653.5H293.139V515.901ZM373.966 543.42H401.486V598.46H373.966V653.5H346.446V433.341H373.966V543.42ZM456.526 488.381V515.901H429.006V488.381H456.526ZM429.006 515.901V543.42H401.486V515.901H429.006ZM429.006 625.98H401.486V598.46H429.006V625.98ZM456.526 653.5H429.006V625.98H456.526V653.5ZM488.826 653.5V631.808H545.161V513.31H488.826V491.618H571.062V631.808H626.102V653.5H488.826ZM536.42 445.644C536.42 439.816 538.362 434.852 542.247 430.751C546.133 426.434 551.097 424.275 557.141 424.275C563.4 424.275 568.58 426.434 572.681 430.751C576.998 434.852 579.156 439.816 579.156 445.644C579.156 451.256 576.998 456.004 572.681 459.889C568.58 463.775 563.4 465.717 557.141 465.717C551.097 465.717 546.133 463.775 542.247 459.889C538.362 456.004 536.42 451.256 536.42 445.644ZM649.934 548.277C649.934 546.334 649.826 543.852 649.61 540.83C649.61 537.593 649.502 534.355 649.287 531.117C649.071 527.664 648.747 524.318 648.315 521.081C648.099 517.843 647.776 515.037 647.344 512.663H625.652V491.618H669.036L671.95 517.843H673.569C675.727 514.174 678.533 510.612 681.987 507.159C685.656 503.49 689.865 500.252 694.614 497.446C699.362 494.424 704.65 492.05 710.478 490.323C716.306 488.596 722.457 487.733 728.932 487.733C738.861 487.733 747.603 488.812 755.157 490.971C762.928 493.129 769.295 497.014 774.259 502.626C779.44 508.022 783.325 515.469 785.915 524.966C788.505 534.247 789.8 546.118 789.8 560.58V653.5H764.546V565.436C764.546 547.521 761.633 534.031 755.805 524.966C749.977 515.901 739.401 511.368 724.076 511.368C718.464 511.368 712.96 512.555 707.564 514.929C702.384 517.088 697.635 520.002 693.318 523.671C689.002 527.34 685.224 531.657 681.987 536.621C678.749 541.37 676.375 546.442 674.864 551.838V653.5H649.934V548.277ZM813.308 653.5V631.808H851.836V513.31H813.308V491.618H851.836V482.553C851.836 462.264 857.124 447.586 867.7 438.521C878.277 429.456 893.386 424.923 913.027 424.923C920.15 424.923 926.517 425.355 932.129 426.218C937.741 427.081 943.785 428.808 950.26 431.398L944.432 452.443C938.82 450.069 933.424 448.558 928.244 447.91C923.064 447.047 918.315 446.615 913.999 446.615C899.753 446.615 890.04 450.177 884.86 457.299C879.68 464.206 877.09 475.646 877.09 491.618H944.109V513.31H877.09V631.808H944.109V653.5H813.308Z" fill="white"/>
</svg>
