<svg width="1682" height="529" viewBox="0 0 1682 529" fill="none" xmlns="http://www.w3.org/2000/svg">
<path d="M41.56 63.32V94.6H72.84V125.88H41.56V251H10.28V63.32H41.56ZM72.84 63.32H104.12V94.6H72.84V63.32ZM166.68 63.32H197.96V94.6H166.68V63.32ZM104.12 251V94.6H166.68V125.88H135.4V251H104.12ZM197.96 94.6H229.24V251H197.96V94.6ZM289.831 94.6V63.32H383.671V94.6H289.831ZM258.551 125.88V94.6H289.831V125.88H258.551ZM383.671 251V219.72H352.391V188.44H383.671V157.16H289.831V125.88H383.671V94.6H414.951V219.72H446.231V251H383.671ZM258.551 219.72V157.16H289.831V219.72H258.551ZM289.831 251V219.72H352.391V251H289.831ZM475.57 125.88H506.85V188.44H475.57V251H444.29V0.759997H475.57V125.88ZM569.41 63.32V94.6H538.13V63.32H569.41ZM538.13 94.6V125.88H506.85V94.6H538.13ZM538.13 219.72H506.85V188.44H538.13V219.72ZM569.41 251H538.13V219.72H569.41V251ZM723.884 63.32V94.6H630.044V63.32H723.884ZM755.164 157.16H630.044V219.72H598.764V94.6H630.044V125.88H723.884V94.6H755.164V157.16ZM755.164 188.44V219.72H723.884V188.44H755.164ZM723.884 251H630.044V219.72H723.884V251ZM0.712002 482.52H65.48V379.48H0.712002V339H113.32V482.52H181.4V523H0.712002V482.52ZM56.648 288.952C56.648 281.347 59.4693 274.845 65.112 269.448C70.7547 264.051 78.6053 261.352 88.664 261.352C98.968 261.352 107.187 264.051 113.32 269.448C119.453 274.845 122.52 281.347 122.52 288.952C122.52 296.803 119.453 303.304 113.32 308.456C107.187 313.363 98.968 315.816 88.664 315.816C78.6053 315.816 70.7547 313.363 65.112 308.456C59.4693 303.304 56.648 296.803 56.648 288.952ZM170.952 339H235.352L240.872 363.288H242.344C247.987 355.437 256.083 348.568 266.632 342.68C277.182 336.792 289.816 333.848 304.536 333.848C313.614 333.848 322.078 335.075 329.928 337.528C338.024 339.981 344.894 344.029 350.536 349.672C356.179 355.315 360.595 363.043 363.784 372.856C367.219 382.424 368.936 394.323 368.936 408.552V523H321.096V418.488C321.096 403.523 317.662 392.728 310.792 386.104C304.168 379.48 295.704 376.168 285.4 376.168C276.323 376.168 267.982 378.867 260.376 384.264C253.016 389.416 247.987 395.917 245.288 403.768V523H197.448V379.48H170.952V339ZM380.201 523V482.52H423.625V379.48H379.833V339H423.625V328.696C423.625 317.165 425.587 307.229 429.513 298.888C433.683 290.547 439.081 283.677 445.705 278.28C452.329 272.883 459.934 268.957 468.521 266.504C477.353 263.805 486.43 262.456 495.753 262.456C512.681 262.456 526.542 263.928 537.337 266.872C548.377 269.571 557.454 273.005 564.569 277.176L550.585 313.608C544.942 310.909 538.809 308.456 532.185 306.248C525.806 304.04 517.465 302.936 507.161 302.936C493.913 302.936 484.59 306.003 479.193 312.136C474.041 318.024 471.465 326.979 471.465 339H548.745V379.48H471.465V482.52H549.113V523H380.201ZM738.121 503.496C734.931 506.44 730.761 509.384 725.609 512.328C720.702 515.027 714.814 517.603 707.945 520.056C701.321 522.509 693.961 524.472 685.865 525.944C677.769 527.416 669.182 528.152 660.105 528.152C644.403 528.152 630.297 525.944 617.785 521.528C605.518 517.112 595.091 510.733 586.505 502.392C577.918 493.805 571.294 483.624 566.633 471.848C562.217 459.827 560.009 446.211 560.009 431C560.009 414.808 562.585 400.701 567.737 388.68C572.889 376.413 579.881 366.232 588.713 358.136C597.79 350.04 608.339 344.029 620.361 340.104C632.382 335.933 645.385 333.848 659.369 333.848C668.691 333.848 678.259 335.075 688.073 337.528C698.131 339.981 707.331 344.275 715.673 350.408C724.014 356.296 730.761 364.269 735.913 374.328C741.31 384.387 744.009 397.144 744.009 412.6C744.009 423.149 742.782 434.557 740.329 446.824H607.849C608.094 454.675 609.689 461.299 612.633 466.696C615.822 472.093 619.87 476.509 624.777 479.944C629.929 483.379 635.694 485.955 642.073 487.672C648.697 489.144 655.689 489.88 663.049 489.88C677.769 489.88 689.79 488.163 699.113 484.728C708.681 481.293 716.409 477.123 722.297 472.216L738.121 503.496ZM658.633 372.12C652.254 372.12 646.243 372.979 640.601 374.696C634.958 376.413 629.806 378.989 625.145 382.424C620.729 385.613 617.049 389.661 614.105 394.568C611.161 399.475 609.443 404.995 608.953 411.128H699.481C699.481 399.107 696.046 389.661 689.177 382.792C682.553 375.677 672.371 372.12 658.633 372.12ZM743.497 482.52H789.129V379.48H743.497V339H826.297L831.817 363.288H833.289C840.158 355.192 848.009 348.445 856.841 343.048C865.673 337.651 875.977 334.952 887.753 334.952C902.473 334.952 914.004 340.349 922.345 351.144C930.932 361.939 935.225 379.971 935.225 405.24H892.169C892.169 396.408 890.82 390.029 888.121 386.104C885.668 381.933 881.62 379.848 875.977 379.848C866.164 379.848 858.19 382.301 852.057 387.208C846.169 392.115 841.14 397.757 836.969 404.136V482.52H916.825V523H743.497V482.52ZM1113.19 503.496C1110 506.44 1105.83 509.384 1100.68 512.328C1095.77 515.027 1089.89 517.603 1083.02 520.056C1076.39 522.509 1069.03 524.472 1060.94 525.944C1052.84 527.416 1044.25 528.152 1035.18 528.152C1019.48 528.152 1005.37 525.944 992.857 521.528C980.591 517.112 970.164 510.733 961.577 502.392C952.991 493.805 946.367 483.624 941.705 471.848C937.289 459.827 935.081 446.211 935.081 431C935.081 414.808 937.657 400.701 942.809 388.68C947.961 376.413 954.953 366.232 963.785 358.136C972.863 350.04 983.412 344.029 995.433 340.104C1007.45 335.933 1020.46 333.848 1034.44 333.848C1043.76 333.848 1053.33 335.075 1063.15 337.528C1073.2 339.981 1082.4 344.275 1090.75 350.408C1099.09 356.296 1105.83 364.269 1110.99 374.328C1116.38 384.387 1119.08 397.144 1119.08 412.6C1119.08 423.149 1117.85 434.557 1115.4 446.824H982.921C983.167 454.675 984.761 461.299 987.705 466.696C990.895 472.093 994.943 476.509 999.849 479.944C1005 483.379 1010.77 485.955 1017.15 487.672C1023.77 489.144 1030.76 489.88 1038.12 489.88C1052.84 489.88 1064.86 488.163 1074.19 484.728C1083.75 481.293 1091.48 477.123 1097.37 472.216L1113.19 503.496ZM1033.71 372.12C1027.33 372.12 1021.32 372.979 1015.67 374.696C1010.03 376.413 1004.88 378.989 1000.22 382.424C995.801 385.613 992.121 389.661 989.177 394.568C986.233 399.475 984.516 404.995 984.025 411.128H1074.55C1074.55 399.107 1071.12 389.661 1064.25 382.792C1057.63 375.677 1047.44 372.12 1033.71 372.12ZM1108.63 339H1173.03L1178.55 363.288H1180.03C1185.67 355.437 1193.76 348.568 1204.31 342.68C1214.86 336.792 1227.5 333.848 1242.22 333.848C1251.29 333.848 1259.76 335.075 1267.61 337.528C1275.71 339.981 1282.57 344.029 1288.22 349.672C1293.86 355.315 1298.28 363.043 1301.47 372.856C1304.9 382.424 1306.62 394.323 1306.62 408.552V523H1258.78V418.488C1258.78 403.523 1255.34 392.728 1248.47 386.104C1241.85 379.48 1233.39 376.168 1223.08 376.168C1214 376.168 1205.66 378.867 1198.06 384.264C1190.7 389.416 1185.67 395.917 1182.97 403.768V523H1135.13V379.48H1108.63V339ZM1492.68 505.336C1482.62 512.941 1470.85 518.707 1457.35 522.632C1443.86 526.312 1429.75 528.152 1415.03 528.152C1399.09 528.152 1384.86 525.821 1372.35 521.16C1360.08 516.499 1349.65 509.997 1341.07 501.656C1332.72 493.069 1326.35 482.765 1321.93 470.744C1317.51 458.723 1315.31 445.475 1315.31 431C1315.31 415.544 1317.88 401.805 1323.03 389.784C1328.19 377.763 1335.3 367.581 1344.38 359.24C1353.7 350.899 1364.62 344.643 1377.13 340.472C1389.64 336.056 1403.26 333.848 1417.98 333.848C1431.72 333.848 1444.6 335.443 1456.62 338.632C1468.64 341.821 1477.84 344.888 1484.22 347.832V412.6H1443.74V378.744C1436.13 377.027 1428.53 376.168 1420.92 376.168C1414.05 376.168 1407.18 377.272 1400.31 379.48C1393.69 381.443 1387.68 384.755 1382.28 389.416C1377.13 393.832 1372.84 399.475 1369.4 406.344C1366.21 413.213 1364.62 421.432 1364.62 431C1364.62 438.851 1365.97 446.088 1368.67 452.712C1371.36 459.336 1375.17 465.101 1380.07 470.008C1384.98 474.915 1390.99 478.84 1398.11 481.784C1405.47 484.483 1413.56 485.832 1422.39 485.832C1436.38 485.832 1447.79 483.869 1456.62 479.944C1465.7 476.019 1472.44 472.584 1476.86 469.64L1492.68 505.336ZM1675.8 503.496C1672.61 506.44 1668.44 509.384 1663.29 512.328C1658.38 515.027 1652.5 517.603 1645.63 520.056C1639 522.509 1631.64 524.472 1623.55 525.944C1615.45 527.416 1606.86 528.152 1597.79 528.152C1582.08 528.152 1567.98 525.944 1555.47 521.528C1543.2 517.112 1532.77 510.733 1524.19 502.392C1515.6 493.805 1508.98 483.624 1504.31 471.848C1499.9 459.827 1497.69 446.211 1497.69 431C1497.69 414.808 1500.27 400.701 1505.42 388.68C1510.57 376.413 1517.56 366.232 1526.39 358.136C1535.47 350.04 1546.02 344.029 1558.04 340.104C1570.06 335.933 1583.07 333.848 1597.05 333.848C1606.37 333.848 1615.94 335.075 1625.75 337.528C1635.81 339.981 1645.01 344.275 1653.35 350.408C1661.7 356.296 1668.44 364.269 1673.59 374.328C1678.99 384.387 1681.69 397.144 1681.69 412.6C1681.69 423.149 1680.46 434.557 1678.01 446.824H1545.53C1545.78 454.675 1547.37 461.299 1550.31 466.696C1553.5 472.093 1557.55 476.509 1562.46 479.944C1567.61 483.379 1573.38 485.955 1579.75 487.672C1586.38 489.144 1593.37 489.88 1600.73 489.88C1615.45 489.88 1627.47 488.163 1636.79 484.728C1646.36 481.293 1654.09 477.123 1659.98 472.216L1675.8 503.496ZM1596.31 372.12C1589.94 372.12 1583.92 372.979 1578.28 374.696C1572.64 376.413 1567.49 378.989 1562.83 382.424C1558.41 385.613 1554.73 389.661 1551.79 394.568C1548.84 399.475 1547.12 404.995 1546.63 411.128H1637.16C1637.16 399.107 1633.73 389.661 1626.86 382.792C1620.23 375.677 1610.05 372.12 1596.31 372.12Z" fill="white"/>
</svg>
