<svg width="879" height="525" viewBox="0 0 879 525" fill="none" xmlns="http://www.w3.org/2000/svg">
<path d="M355.114 456C355.114 467.623 353.069 477.739 348.98 486.348C345.105 494.958 339.617 502.061 332.514 507.657C325.626 513.468 317.34 517.666 307.654 520.248C298.184 523.047 287.745 524.446 276.337 524.446C268.588 524.446 261.27 523.8 254.383 522.508C247.71 521.432 241.468 519.926 235.657 517.988C230.061 516.051 225.11 513.899 220.806 511.531C216.501 509.379 213.057 507.227 210.474 505.074L226.617 475.371C231.783 478.815 237.917 482.044 245.02 485.057C252.338 488.286 261.486 489.9 272.463 489.9C286.023 489.9 296.354 486.779 303.457 480.537C310.56 474.295 314.111 465.363 314.111 453.74V443.409H312.82C308.945 448.574 303.242 452.449 295.708 455.031C288.175 457.399 279.458 458.583 269.557 458.583C259.226 458.583 249.647 456.969 240.823 453.74C232.213 450.511 224.68 445.669 218.223 439.211C211.766 432.539 206.708 424.145 203.049 414.029C199.605 403.913 197.883 392.074 197.883 378.514C197.883 364.309 199.928 351.717 204.017 340.74C208.322 329.763 214.241 320.616 221.774 313.297C229.523 305.764 238.67 300.168 249.217 296.509C259.979 292.635 271.925 290.698 285.054 290.698C291.942 290.698 298.829 291.02 305.717 291.666C312.604 292.097 319.062 292.742 325.088 293.603C331.33 294.464 337.034 295.54 342.2 296.832C347.365 297.908 351.67 299.092 355.114 300.383V456ZM277.628 425.006C285.807 425.006 293.125 423.176 299.583 419.517C306.255 415.858 310.775 410.37 313.143 403.052V330.409C310.129 329.117 305.824 328.149 300.228 327.503C294.847 326.642 289.682 326.212 284.731 326.212C278.705 326.212 273.001 327.18 267.62 329.117C262.454 331.055 257.826 334.176 253.737 338.48C249.863 342.57 246.742 347.843 244.374 354.3C242.222 360.542 241.146 368.075 241.146 376.9C241.146 384.649 242.114 391.536 244.051 397.563C245.988 403.59 248.679 408.648 252.123 412.737C255.566 416.827 259.441 419.948 263.746 422.1C268.05 424.037 272.678 425.006 277.628 425.006ZM361.122 420.486H401.156V330.086H361.122V294.572H433.765L438.608 315.88H439.899C445.926 308.777 452.813 302.858 460.562 298.123C468.31 293.388 477.35 291.02 487.682 291.02C500.596 291.02 510.712 295.756 518.03 305.226C525.564 314.697 529.33 330.516 529.33 352.686H491.556C491.556 344.937 490.372 339.341 488.005 335.897C485.852 332.238 482.301 330.409 477.35 330.409C468.741 330.409 461.746 332.561 456.365 336.866C451.199 341.171 446.787 346.121 443.128 351.717V420.486H513.187V456H361.122V420.486ZM532.11 420.486H588.932V330.086H532.11V294.572H630.904V420.486H690.632V456H532.11V420.486ZM581.184 250.663C581.184 243.991 583.659 238.287 588.61 233.552C593.56 228.817 600.448 226.449 609.272 226.449C618.312 226.449 625.523 228.817 630.904 233.552C636.285 238.287 638.975 243.991 638.975 250.663C638.975 257.551 636.285 263.255 630.904 267.775C625.523 272.079 618.312 274.232 609.272 274.232C600.448 274.232 593.56 272.079 588.61 267.775C583.659 263.255 581.184 257.551 581.184 250.663ZM776.386 230.001H843.863V369.474C843.863 385.617 844.724 401.545 846.446 417.257C846.446 418.333 846.553 419.41 846.769 420.486H867.431V456H815.452L811.254 435.337H809.963C807.811 439.211 804.905 442.655 801.246 445.669C797.587 448.682 793.497 451.372 788.977 453.74C784.457 455.892 779.507 457.507 774.126 458.583C768.745 459.874 763.364 460.52 757.983 460.52C747.867 460.52 738.289 458.906 729.249 455.677C720.424 452.449 712.676 447.498 706.003 440.826C699.331 433.938 694.058 425.329 690.183 414.997C686.309 404.451 684.372 392.074 684.372 377.869C684.372 364.094 686.417 351.825 690.506 341.063C694.811 330.301 700.622 321.261 707.94 313.943C715.474 306.41 724.298 300.706 734.415 296.832C744.531 292.742 755.615 290.698 767.669 290.698C774.341 290.698 780.583 291.128 786.394 291.989C792.421 292.635 797.587 293.818 801.892 295.54V265.515H776.386V230.001ZM767.669 425.006C775.848 425.006 783.058 423.069 789.3 419.194C795.757 415.105 799.954 409.293 801.892 401.76V333.315C798.878 330.947 794.681 329.225 789.3 328.149C784.134 326.857 778.646 326.212 772.834 326.212C767.023 326.212 761.319 327.18 755.723 329.117C750.342 331.055 745.499 334.176 741.195 338.48C737.105 342.57 733.769 347.951 731.186 354.623C728.818 361.295 727.635 369.474 727.635 379.16C727.635 392.935 731.078 404.02 737.966 412.414C744.854 420.809 754.755 425.006 767.669 425.006Z" fill="#A996F4"/>
<path d="M55.0398 64.8806V92.4005H82.5597V119.92H55.0398V230H27.5199V64.8806H55.0398ZM82.5597 64.8806H110.08V92.4005H82.5597V64.8806ZM165.119 64.8806H192.639V92.4005H165.119V64.8806ZM110.08 230V92.4005H165.119V119.92H137.599V230H110.08ZM192.639 92.4005H220.159V230H192.639V92.4005ZM273.466 119.92H300.986V174.96H273.466V230H245.946V9.84087H273.466V119.92ZM356.026 64.8806V92.4005H328.506V64.8806H356.026ZM328.506 92.4005V119.92H300.986V92.4005H328.506ZM328.506 202.48H300.986V174.96H328.506V202.48ZM356.026 230H328.506V202.48H356.026V230ZM388.326 230V208.308H444.661V89.8104H388.326V68.1183H470.562V208.308H525.602V230H388.326ZM435.92 22.1439C435.92 16.3161 437.862 11.3518 441.747 7.25075C445.633 2.93391 450.597 0.775492 456.641 0.775492C462.9 0.775492 468.08 2.93391 472.181 7.25075C476.498 11.3518 478.656 16.3161 478.656 22.1439C478.656 27.7558 476.498 32.5043 472.181 36.3895C468.08 40.2746 462.9 42.2172 456.641 42.2172C450.597 42.2172 445.633 40.2746 441.747 36.3895C437.862 32.5043 435.92 27.7558 435.92 22.1439ZM549.434 124.777C549.434 122.834 549.326 120.352 549.11 117.33C549.11 114.093 549.002 110.855 548.787 107.617C548.571 104.164 548.247 100.818 547.815 97.5808C547.599 94.3431 547.276 91.5372 546.844 89.1629H525.152V68.1183H568.536L571.45 94.3431H573.069C575.227 90.6738 578.033 87.1124 581.487 83.6589C585.156 79.9896 589.365 76.752 594.114 73.946C598.862 70.9242 604.15 68.55 609.978 66.8232C615.806 65.0965 621.957 64.2331 628.432 64.2331C638.361 64.2331 647.103 65.3123 654.657 67.4707C662.428 69.6292 668.795 73.5143 673.759 79.1262C678.94 84.5223 682.825 91.9689 685.415 101.466C688.005 110.747 689.3 122.618 689.3 137.08V230H664.046V141.936C664.046 124.021 661.133 110.531 655.305 101.466C649.477 92.4005 638.901 87.8679 623.576 87.8679C617.964 87.8679 612.46 89.055 607.064 91.4292C601.884 93.5877 597.135 96.5015 592.818 100.171C588.502 103.84 584.724 108.157 581.487 113.121C578.249 117.87 575.875 122.942 574.364 128.338V230H549.434V124.777ZM712.808 230V208.308H751.336V89.8104H712.808V68.1183H751.336V59.0529C751.336 38.7637 756.624 24.0864 767.2 15.0211C777.777 5.9557 792.886 1.42301 812.527 1.42301C819.65 1.42301 826.017 1.8547 831.629 2.71807C837.241 3.58144 843.285 5.30817 849.76 7.89827L843.932 28.9429C838.32 26.5686 832.924 25.0577 827.744 24.4102C822.564 23.5468 817.815 23.1152 813.499 23.1152C799.253 23.1152 789.54 26.6766 784.36 33.7994C779.18 40.7063 776.59 52.146 776.59 68.1183H843.609V89.8104H776.59V208.308H843.609V230H712.808Z" fill="white"/>
</svg>
