<svg width="911" height="461" viewBox="0 0 911 461" fill="none" xmlns="http://www.w3.org/2000/svg">
<path d="M388 230.001H453.217V312.652H454.508C459.674 305.764 466.562 300.276 475.171 296.186C483.781 292.097 493.897 290.052 505.52 290.052C513.699 290.052 521.232 291.128 528.12 293.28C535.007 295.433 540.926 298.984 545.877 303.935C550.827 308.885 554.702 315.665 557.5 324.275C560.298 332.669 561.697 343.108 561.697 355.592V456H519.725V364.309C519.725 351.179 516.927 341.709 511.331 335.897C505.735 330.086 498.417 327.18 489.377 327.18C481.413 327.18 474.095 329.656 467.423 334.606C460.75 339.341 456.015 345.476 453.217 353.009V456H411.246V265.515H388V230.001ZM659.073 294.572H719.125V406.926C719.125 411.446 719.125 415.966 719.125 420.486H743.662V456H692.65L685.225 432.109H683.933C678.983 440.288 671.557 447.068 661.656 452.449C651.755 457.83 640.778 460.52 628.725 460.52C620.546 460.52 613.012 459.444 606.125 457.291C599.452 455.139 593.749 451.588 589.013 446.637C584.278 441.687 580.619 435.014 578.036 426.62C575.453 418.226 574.162 407.679 574.162 394.98V330.086H555.759V294.572H616.133V386.263C616.133 399.393 618.178 408.863 622.268 414.674C626.572 420.486 633.245 423.392 642.285 423.392C650.248 423.392 657.351 421.024 663.593 416.289C670.05 411.553 674.57 405.742 677.153 398.854V330.086H659.073V294.572ZM712.864 230.001H779.695V307.486H780.987C785.507 302.32 791.533 298.231 799.067 295.218C806.815 292.204 816.286 290.698 827.478 290.698C848.787 290.698 865.79 297.37 878.489 310.715C891.404 324.059 897.861 344.184 897.861 371.089C897.861 385.51 895.708 398.316 891.404 409.509C887.099 420.486 880.965 429.741 873.001 437.274C865.252 444.592 855.674 450.189 844.267 454.063C833.074 457.937 820.375 459.874 806.17 459.874C789.381 459.874 775.283 457.937 763.875 454.063C752.683 450.189 743.966 446.314 737.724 442.44V265.515H712.864V230.001ZM815.855 326.212C812.842 326.212 809.506 326.75 805.847 327.826C802.188 328.902 798.636 330.409 795.192 332.346C791.964 334.283 788.843 336.758 785.83 339.772C783.032 342.57 780.987 345.798 779.695 349.457V416.612C783.139 418.333 787.874 420.055 793.901 421.777C799.928 423.499 806.385 424.36 813.272 424.36C818.869 424.36 824.142 423.392 829.092 421.454C834.258 419.302 838.67 416.073 842.33 411.769C846.204 407.464 849.217 402.083 851.369 395.626C853.522 389.169 854.598 381.42 854.598 372.38C854.598 357.098 851.262 345.583 844.59 337.835C838.132 330.086 828.554 326.212 815.855 326.212Z" fill="#A996F4"/>
<path d="M55.0398 64.8806V92.4005H82.5597V119.92H55.0398V230H27.5199V64.8806H55.0398ZM82.5597 64.8806H110.08V92.4005H82.5597V64.8806ZM165.119 64.8806H192.639V92.4005H165.119V64.8806ZM110.08 230V92.4005H165.119V119.92H137.599V230H110.08ZM192.639 92.4005H220.159V230H192.639V92.4005ZM273.466 119.92H300.986V174.96H273.466V230H245.946V9.84087H273.466V119.92ZM356.026 64.8806V92.4005H328.506V64.8806H356.026ZM328.506 92.4005V119.92H300.986V92.4005H328.506ZM328.506 202.48H300.986V174.96H328.506V202.48ZM356.026 230H328.506V202.48H356.026V230ZM388.326 230V208.308H444.661V89.8104H388.326V68.1183H470.562V208.308H525.602V230H388.326ZM435.92 22.1439C435.92 16.3161 437.862 11.3518 441.747 7.25075C445.633 2.93391 450.597 0.775492 456.641 0.775492C462.9 0.775492 468.08 2.93391 472.181 7.25075C476.498 11.3518 478.656 16.3161 478.656 22.1439C478.656 27.7558 476.498 32.5043 472.181 36.3895C468.08 40.2746 462.9 42.2172 456.641 42.2172C450.597 42.2172 445.633 40.2746 441.747 36.3895C437.862 32.5043 435.92 27.7558 435.92 22.1439ZM549.434 124.777C549.434 122.834 549.326 120.352 549.11 117.33C549.11 114.093 549.002 110.855 548.787 107.617C548.571 104.164 548.247 100.818 547.815 97.5808C547.599 94.3431 547.276 91.5372 546.844 89.1629H525.152V68.1183H568.536L571.45 94.3431H573.069C575.227 90.6738 578.033 87.1124 581.487 83.6589C585.156 79.9896 589.365 76.752 594.114 73.946C598.862 70.9242 604.15 68.55 609.978 66.8232C615.806 65.0965 621.957 64.2331 628.432 64.2331C638.361 64.2331 647.103 65.3123 654.657 67.4707C662.428 69.6292 668.795 73.5143 673.759 79.1262C678.94 84.5223 682.825 91.9689 685.415 101.466C688.005 110.747 689.3 122.618 689.3 137.08V230H664.046V141.936C664.046 124.021 661.133 110.531 655.305 101.466C649.477 92.4005 638.901 87.8679 623.576 87.8679C617.964 87.8679 612.46 89.055 607.064 91.4292C601.884 93.5877 597.135 96.5015 592.818 100.171C588.502 103.84 584.724 108.157 581.487 113.121C578.249 117.87 575.875 122.942 574.364 128.338V230H549.434V124.777ZM712.808 230V208.308H751.336V89.8104H712.808V68.1183H751.336V59.0529C751.336 38.7637 756.624 24.0864 767.2 15.0211C777.777 5.9557 792.886 1.42301 812.527 1.42301C819.65 1.42301 826.017 1.8547 831.629 2.71807C837.241 3.58144 843.285 5.30817 849.76 7.89827L843.932 28.9429C838.32 26.5686 832.924 25.0577 827.744 24.4102C822.564 23.5468 817.815 23.1152 813.499 23.1152C799.253 23.1152 789.54 26.6766 784.36 33.7994C779.18 40.7063 776.59 52.146 776.59 68.1183H843.609V89.8104H776.59V208.308H843.609V230H712.808Z" fill="white"/>
</svg>
